<?xml version="1.0"?>
<svg xmlns="http://www.w3.org/2000/svg" xmlns:xlink="http://www.w3.org/1999/xlink" xmlns:svgjs="http://svgjs.com/svgjs" version="1.1" width="512" height="512" x="0" y="0" viewBox="0 0 96 96" style="enable-background:new 0 0 512 512" xml:space="preserve" class=""><g><path xmlns="http://www.w3.org/2000/svg" id="Refund" d="m50 6c-16.261 0-31.014 9.378-37.954 24h-6.046c-.693 0-1.337.359-1.701.948-.364.59-.397 1.326-.088 1.946l8 16c.339.678 1.031 1.106 1.789 1.106s1.45-.428 1.789-1.105l8-16c.31-.62.276-1.356-.088-1.946s-1.008-.949-1.701-.949h-5.465c6.587-12.242 19.399-20 33.465-20 20.953 0 38 17.047 38 38s-17.047 38-38 38c-15.564 0-29.395-9.328-35.233-23.766-.415-1.023-1.575-1.515-2.604-1.104-1.023.415-1.519 1.58-1.104 2.604 6.453 15.956 21.739 26.266 38.941 26.266 23.159 0 42-18.841 42-42s-18.841-42-42-42zm-36 37.528-4.764-9.528h9.527zm44 8.472c0 3.309-2.691 6-6 6v3c0 1.104-.896 2-2 2s-2-.896-2-2v-3h-3c-1.104 0-2-.896-2-2s.896-2 2-2h7c1.103 0 2-.897 2-2s-.897-2-2-2h-4c-3.309 0-6-2.691-6-6s2.691-6 6-6v-3c0-1.104.896-2 2-2s2 .896 2 2v3h3c1.104 0 2 .896 2 2s-.896 2-2 2h-7c-1.103 0-2 .897-2 2s.897 2 2 2h4c3.309 0 6 2.691 6 6zm-8 19c-12.683 0-23-10.317-23-23s10.317-23 23-23 23 10.317 23 23-10.317 23-23 23zm0-42c-10.477 0-19 8.523-19 19s8.523 19 19 19 19-8.523 19-19-8.523-19-19-19z" fill="#52b788" data-original="#000000" class=""/></g></svg>
